REM DIRINDEX 1\2\5,1\2\6,1\3\7,1\3\8,1\4\9,1\4\10
REM DIRNAME cjc079,folder01,folder02,folder03,folder04,folder05,folder06,folder07,folder08,folder09
TITLE ""
FILE "Track24.mp3" MP3
  TRACK 01 AUDIO
    TITLE "8:cjc079_0712"
    INDEX 01 00:00:00
  TRACK 02 AUDIO
    TITLE "8:cjc079_0713"
    INDEX 01 00:02:34
  TRACK 03 AUDIO
    TITLE "7:cjc079_0714"
    INDEX 01 00:04:42
  TRACK 04 AUDIO
    TITLE "0:"
    INDEX 01 00:05:71
  TRACK 05 AUDIO
    TITLE "7:cjc079_0715"
    INDEX 01 00:06:39
  TRACK 06 AUDIO
    TITLE "0:"
    INDEX 01 00:07:70
  TRACK 07 AUDIO
    TITLE "8:cjc079_0716"
    INDEX 01 00:09:44
  TRACK 08 AUDIO
    TITLE "7:cjc079_0717"
    INDEX 01 00:11:09
  TRACK 09 AUDIO
    TITLE "0:"
    INDEX 01 00:12:36
  TRACK 10 AUDIO
    TITLE "7:cjc079_0718"
    INDEX 01 00:13:06
  TRACK 11 AUDIO
    TITLE "0:"
    INDEX 01 00:14:33
  TRACK 12 AUDIO
    TITLE "8:cjc079_0719"
    INDEX 01 00:16:04
  TRACK 13 AUDIO
    TITLE "7:cjc079_0720"
    INDEX 01 00:17:37
  TRACK 14 AUDIO
    TITLE "0:"
    INDEX 01 00:18:52
  TRACK 15 AUDIO
    TITLE "7:cjc079_0721"
    INDEX 01 00:19:20
  TRACK 16 AUDIO
    TITLE "0:"
    INDEX 01 00:20:36
  TRACK 17 AUDIO
    TITLE "8:cjc079_0722"
    INDEX 01 00:22:03
  TRACK 18 AUDIO
    TITLE "7:cjc079_0723"
    INDEX 01 00:23:55
  TRACK 19 AUDIO
    TITLE "0:"
    INDEX 01 00:25:03
  TRACK 20 AUDIO
    TITLE "7:cjc079_0724"
    INDEX 01 00:25:52
  TRACK 21 AUDIO
    TITLE "0:"
    INDEX 01 00:27:00
  TRACK 22 AUDIO
    TITLE "8:cjc079_0725"
    INDEX 01 00:28:53
  TRACK 23 AUDIO
    TITLE "7:cjc079_0726"
    INDEX 01 00:30:16
  TRACK 24 AUDIO
    TITLE "0:"
    INDEX 01 00:31:29
  TRACK 25 AUDIO
    TITLE "7:cjc079_0727"
    INDEX 01 00:31:73
  TRACK 26 AUDIO
    TITLE "0:"
    INDEX 01 00:33:09
  TRACK 27 AUDIO
    TITLE "8:cjc079_0728"
    INDEX 01 00:34:57
  TRACK 28 AUDIO
    TITLE "7:cjc079_0729"
    INDEX 01 00:36:60
  TRACK 29 AUDIO
    TITLE "0:"
    INDEX 01 00:38:00
  TRACK 30 AUDIO
    TITLE "7:cjc079_0730"
    INDEX 01 00:38:49
  TRACK 31 AUDIO
    TITLE "0:"
    INDEX 01 00:39:64
  TRACK 32 AUDIO
    TITLE "8:cjc079_0731"
    INDEX 01 00:41:44
  TRACK 33 AUDIO
    TITLE "7:cjc079_0732"
    INDEX 01 00:43:07
  TRACK 34 AUDIO
    TITLE "0:"
    INDEX 01 00:44:26
  TRACK 35 AUDIO
    TITLE "7:cjc079_0733"
    INDEX 01 00:44:73
  TRACK 36 AUDIO
    TITLE "0:"
    INDEX 01 00:46:15
  TRACK 37 AUDIO
    TITLE "8:cjc079_0734"
    INDEX 01 00:47:66
  TRACK 38 AUDIO
    TITLE "7:cjc079_0735"
    INDEX 01 00:49:25
  TRACK 39 AUDIO
    TITLE "0:"
    INDEX 01 00:50:52
  TRACK 40 AUDIO
    TITLE "7:cjc079_0736"
    INDEX 01 00:51:26
  TRACK 41 AUDIO
    TITLE "0:"
    INDEX 01 00:52:53
  TRACK 42 AUDIO
    TITLE "8:cjc079_0737"
    INDEX 01 00:54:25
  TRACK 43 AUDIO
    TITLE "7:cjc079_0738"
    INDEX 01 00:56:02
  TRACK 44 AUDIO
    TITLE "0:"
    INDEX 01 00:57:23
  TRACK 45 AUDIO
    TITLE "7:cjc079_0739"
    INDEX 01 00:57:66
  TRACK 46 AUDIO
    TITLE "0:"
    INDEX 01 00:59:14
  TRACK 47 AUDIO
    TITLE "8:cjc079_0740"
    INDEX 01 01:00:59
  TRACK 48 AUDIO
    TITLE "7:cjc079_0741"
    INDEX 01 01:02:22
  TRACK 49 AUDIO
    TITLE "0:"
    INDEX 01 01:03:49
  TRACK 50 AUDIO
    TITLE "7:cjc079_0742"
    INDEX 01 01:04:23
  TRACK 51 AUDIO
    TITLE "0:"
    INDEX 01 01:05:48
  TRACK 52 AUDIO
    TITLE "8:cjc079_0743"
    INDEX 01 01:07:25
  TRACK 53 AUDIO
    TITLE "7:cjc079_0744"
    INDEX 01 01:09:34
  TRACK 54 AUDIO
    TITLE "0:"
    INDEX 01 01:10:49
  TRACK 55 AUDIO
    TITLE "7:cjc079_0745"
    INDEX 01 01:11:21
  TRACK 56 AUDIO
    TITLE "0:"
    INDEX 01 01:12:38
  TRACK 57 AUDIO
    TITLE "8:cjc079_0746"
    INDEX 01 01:14:12
  TRACK 58 AUDIO
    TITLE "7:cjc079_0747"
    INDEX 01 01:15:52
  TRACK 59 AUDIO
    TITLE "0:"
    INDEX 01 01:16:71
  TRACK 60 AUDIO
    TITLE "7:cjc079_0748"
    INDEX 01 01:17:41
  TRACK 61 AUDIO
    TITLE "0:"
    INDEX 01 01:18:58
  TRACK 62 AUDIO
    TITLE "8:cjc079_0749"
    INDEX 01 01:20:32
  TRACK 63 AUDIO
    TITLE "7:cjc079_0750"
    INDEX 01 01:21:63
  TRACK 64 AUDIO
    TITLE "0:"
    INDEX 01 01:23:09
  TRACK 65 AUDIO
    TITLE "7:cjc079_0751"
    INDEX 01 01:23:54
  TRACK 66 AUDIO
    TITLE "0:"
    INDEX 01 01:25:00
  TRACK 67 AUDIO
    TITLE "8:cjc079_0752"
    INDEX 01 01:26:48
  TRACK 68 AUDIO
    TITLE "7:cjc079_0753"
    INDEX 01 01:28:25
  TRACK 69 AUDIO
    TITLE "0:"
    INDEX 01 01:29:52
  TRACK 70 AUDIO
    TITLE "7:cjc079_0754"
    INDEX 01 01:30:30
  TRACK 71 AUDIO
    TITLE "0:"
    INDEX 01 01:31:59
  TRACK 72 AUDIO
    TITLE "8:cjc079_0755"
    INDEX 01 01:33:36
  TRACK 73 AUDIO
    TITLE "7:cjc079_0756"
    INDEX 01 01:35:00
  TRACK 74 AUDIO
    TITLE "0:"
    INDEX 01 01:36:19
  TRACK 75 AUDIO
    TITLE "7:cjc079_0757"
    INDEX 01 01:36:64
  TRACK 76 AUDIO
    TITLE "0:"
    INDEX 01 01:38:10
